<svg width="800" height="500" viewBox="0 0 800 500" fill="none" xmlns="http://www.w3.org/2000/svg">
  <rect width="800" height="500" fill="#0f3040"/>
  <rect x="100" y="80" width="600" height="340" rx="12" fill="#1a3d4a" stroke="rgba(201,168,76,0.2)" stroke-width="1"/>
  <rect x="130" y="100" width="540" height="40" rx="6" fill="rgba(201,168,76,0.08)"/>
  <rect x="130" y="108" width="60" height="24" rx="4" fill="#c9a84c" opacity="0.2"/>
  <rect x="205" y="108" width="40" height="24" rx="4" fill="rgba(255,255,255,0.05)"/>
  <rect x="260" y="108" width="40" height="24" rx="4" fill="rgba(255,255,255,0.05)"/>
  <rect x="315" y="108" width="40" height="24" rx="4" fill="rgba(255,255,255,0.05)"/>
  <rect x="130" y="160" width="540" height="1" fill="rgba(255,255,255,0.05)"/>
  <rect x="130" y="180" width="540" height="120" rx="8" fill="rgba(255,255,255,0.03)"/>
  <text x="400" y="225" text-anchor="middle" font-size="20" fill="rgba(255,255,255,0.15)" font-family="serif" font-weight="bold">HARVARD</text>
  <text x="400" y="250" text-anchor="middle" font-size="12" fill="rgba(255,255,255,0.1)" font-family="sans-serif">UNIVERSITY</text>
  <rect x="130" y="320" width="160" height="14" rx="4" fill="rgba(255,255,255,0.06)"/>
  <rect x="310" y="320" width="100" height="14" rx="4" fill="rgba(255,255,255,0.06)"/>
  <rect x="430" y="320" width="120" height="14" rx="4" fill="rgba(255,255,255,0.06)"/>
  <rect x="130" y="350" width="80" height="20" rx="10" fill="#c9a84c" opacity="0.12"/>
  <rect x="225" y="350" width="80" height="20" rx="10" fill="#00b4d8" opacity="0.12"/>
  <rect x="130" y="390" width="540" height="1" fill="rgba(255,255,255,0.05)"/>
</svg>
