<svg width="800" height="500" viewBox="0 0 800 500" fill="none" xmlns="http://www.w3.org/2000/svg">
  <rect width="800" height="500" fill="#0f3040"/>
  <rect x="100" y="80" width="600" height="340" rx="12" fill="#1a3d4a" stroke="rgba(201,168,76,0.15)" stroke-width="1"/>
  <rect x="130" y="100" width="200" height="24" rx="6" fill="#c9a84c" opacity="0.1"/>
  <rect x="350" y="108" width="80" height="8" rx="4" fill="#c9a84c" opacity="0.08"/>
  <rect x="445" y="108" width="60" height="8" rx="4" fill="rgba(255,255,255,0.05)"/>
  <rect x="520" y="108" width="50" height="8" rx="4" fill="rgba(255,255,255,0.05)"/>
  <rect x="130" y="140" width="540" height="1" fill="rgba(255,255,255,0.05)"/>
  <rect x="130" y="160" width="540" height="50" rx="6" fill="rgba(255,255,255,0.03)" stroke="rgba(255,255,255,0.06)" stroke-width="1"/>
  <rect x="150" y="170" width="60" height="14" rx="4" fill="rgba(255,255,255,0.06)"/>
  <rect x="150" y="192" width="120" height="10" rx="4" fill="rgba(255,255,255,0.03)"/>
  <rect x="580" y="175" width="70" height="20" rx="4" fill="#c9a84c" opacity="0.1"/>
  <rect x="130" y="225" width="540" height="1" fill="rgba(255,255,255,0.05)"/>
  <rect x="130" y="245" width="540" height="50" rx="6" fill="rgba(255,255,255,0.03)" stroke="rgba(255,255,255,0.06)" stroke-width="1"/>
  <rect x="150" y="255" width="80" height="14" rx="4" fill="rgba(255,255,255,0.06)"/>
  <rect x="150" y="277" width="100" height="10" rx="4" fill="rgba(255,255,255,0.03)"/>
  <rect x="580" y="260" width="70" height="20" rx="4" fill="#c9a84c" opacity="0.1"/>
  <rect x="130" y="310" width="540" height="1" fill="rgba(255,255,255,0.05)"/>
  <rect x="130" y="330" width="540" height="50" rx="6" fill="rgba(255,255,255,0.03)" stroke="rgba(255,255,255,0.06)" stroke-width="1"/>
  <rect x="150" y="340" width="70" height="14" rx="4" fill="rgba(255,255,255,0.06)"/>
  <rect x="150" y="362" width="90" height="10" rx="4" fill="rgba(255,255,255,0.03)"/>
  <rect x="580" y="345" width="70" height="20" rx="4" fill="#c9a84c" opacity="0.1"/>
</svg>
